<svg id="left_rose" xmlns="http://www.w3.org/2000/svg" viewBox="0 0 116.01 198.27"><defs><style>.cls-1,.cls-3{fill:none;stroke:#fff;stroke-width:3px;}.cls-2{fill:#fff;}.cls-3{stroke-miterlimit:10;}</style></defs><title>left_roses</title><g id="Group-10"><g id="left_1"><path id="Path-5" class="cls-1" d="M59.32,85.61c-1.65,16.28-1.23,30.72-4.79,47.23-1.56,7.24-8.64,23.74-10.59,29.35-3.13,9-4.71,22.66-6,30.57" transform="translate(-2.49 -0.59)"/><g id="Layer_2" data-name="Layer 2"><path class="cls-2" d="M55,62.15a5.72,5.72,0,0,1,2.82-2.36c1.06-.32,2.87.3,3.33-.82,1.3-3.15-4.66-5.22-6.72-5.2a5.25,5.25,0,0,0-3.7,1.31c-.86,1,.12,1.29.84,2.12C51.86,57.61,53.88,63.58,55,62.15Z" transform="translate(-2.49 -0.59)"/></g><g id="Layer_3" data-name="Layer 3"><path class="cls-2" d="M61.71,60A6.86,6.86,0,0,1,66,64.77a6.39,6.39,0,0,1,.12,2.75,25.73,25.73,0,0,0-.73,3.12c.75.83,5.05-3,5.42-3.5,1.64-2.22.79-4.23.82-6.7,0-1,.32-1.63-.83-1.94a15.06,15.06,0,0,0-3-.11c-1.19,0-2.42-.14-3.61-.07a3.23,3.23,0,0,0-1.65.43C62.34,58.86,61.22,59.83,61.71,60Z" transform="translate(-2.49 -0.59)"/></g><g id="Layer_4" data-name="Layer 4"><path class="cls-2" d="M53.8,65.34c3.37-2.34,7.16-4.76,11-1.72C61.69,58.78,56.08,60.84,53.8,65.34Z" transform="translate(-2.49 -0.59)"/></g><g id="Layer_5" data-name="Layer 5"><path class="cls-2" d="M54.2,63.12a10.39,10.39,0,0,0-2.49,5.08c-.6,4.47,4.08,6.31,7.8,7-1.32,1.53-4.08-.08-5.63-.27s-2.2-.27-3.05-1.56a28.89,28.89,0,0,1-1.38-2.72c-.83-1.62-2.37-3.43-.45-4.88a15.81,15.81,0,0,0,2.52-2C52.34,62.86,53.08,62,54.2,63.12Z" transform="translate(-2.49 -0.59)"/></g><g id="Layer_6" data-name="Layer 6"><path class="cls-2" d="M54,71.67c.68-1.28,2-3.25,3.7-2.93-1.62-.63-1.69-2.5-1.22-3.92C53.12,65.67,52.61,68.85,54,71.67Z" transform="translate(-2.49 -0.59)"/></g><g id="Layer_7" data-name="Layer 7"><path class="cls-2" d="M54.69,72.17c.94-2.21,2.44-2.59,4.55-2.72a6,6,0,0,0,5.82-5,6.79,6.79,0,0,1-10.37,7.68Z" transform="translate(-2.49 -0.59)"/></g><g id="Layer_8" data-name="Layer 8"><path class="cls-2" d="M48.17,71.34A6.2,6.2,0,0,0,48.68,78c1.65,1.91,4.72,1,6.49,2.89.87.91,1.43,2,2.95,1.46,1.17-.4,1.27-1.61,2.23-2.23,2.13-1.38,4.73,2.09,6.3,0a23.62,23.62,0,0,1,1.42-2.48,5.68,5.68,0,0,1,2.4-1.32,7.6,7.6,0,0,0,3-1.74,2.57,2.57,0,0,0,.48-1,5.65,5.65,0,0,1,.75-1.77c.33-.52,1.25-1.66.36-1.54-.36,0-1.21.91-1.55,1.12a11.5,11.5,0,0,1-1.89.87c-1.28.52-1.6,1.4-2.6,2.36a4.17,4.17,0,0,1-1.54.91c-.77.31-1.45.72-2.2,1.06-1.72.8-3.74.31-5.52,0-.94-.14-1.86-.05-2.81-.1C53,76.23,49.3,75.73,48.17,71.34Z" transform="translate(-2.49 -0.59)"/></g><g id="Layer_9" data-name="Layer 9"><path class="cls-2" d="M46.3,73.94c.88-1.76-.77-3.4-2.13-4.3a6.75,6.75,0,0,0-6.92-.59c-2.37,1.35-3.06,3.6-1.14,5.69a3.38,3.38,0,0,1,1.07,1.5c.49,1.51.32,1.59,1.75,2.13,1.22.46.88.89,1.56,1.95.83,1.33,2.16,1.38,3.63,1.46a12.87,12.87,0,0,1,5.14,1c.37.17,2.36,1.4,2.76,1,.57-.56-2.36-2.51-2.6-2.75C48,79.76,45.31,75.93,46.3,73.94Z" transform="translate(-2.49 -0.59)"/></g><g id="Layer_10" data-name="Layer 10"><path class="cls-2" d="M49.2,79.45C52,80.91,54,83.67,56,86s5.21,7.16,8.34,3.13c.87-1.12,1.32-2.5,2.23-3.62a19.53,19.53,0,0,1,1.93-2.14c.51-.45,1-1.09.89-.1-.15,1.43-2.34,3.42-3.2,4.54S64.55,90,63.74,91c6.05-2.43,11.15-8.09,9.11-14.84a7.12,7.12,0,0,0-3.93,3.55c-1.65,2.91-3.91,2.55-6.81,2.37-2-.12-3.2,2-5.32,1.56-1.32-.24-2.14-1.29-3.12-2.1A12.93,12.93,0,0,0,49.2,79.45Z" transform="translate(-2.49 -0.59)"/></g><g id="Layer_11" data-name="Layer 11"><path class="cls-2" d="M73.8,75.8c.52,2.44,1.52,5.93-.2,8.15,2.51-1.46,1.94-4.68,2.74-6.93.36-1,1.32-1,2-1.79a5.51,5.51,0,0,0,1.19-2.65c.12-1.08-.56-2-.52-3.13a2.92,2.92,0,0,1,.27-1.26c.24-.42.73-.52.93-.83.32-.48.58-.79-.32-.81s-2.4,1.37-2.91,2c-.75,1-.84,2.31-1.42,3.41C74.85,73.35,74.86,74.46,73.8,75.8Z" transform="translate(-2.49 -0.59)"/></g><g id="Layer_12" data-name="Layer 12"><path class="cls-2" d="M61.45,74.88c.75-1.12,1.67-2.63,3-3.09.7-.23,1.53-.22,2.25-.44a4.42,4.42,0,0,0,2.39-1.73c1.23-1.35,3.49-1.75,3.72-3.85a23.68,23.68,0,0,0-.26-4c1.1,1.48,2.59,2.56,3.69,4,1.93,2.49-1.42,3.83-3.4,4.45-1.26.39-2.86.71-3.64,1.86-.64,1-.78,2-1.83,2.71s-2,.54-3.12.72S61.58,76.54,61.45,74.88Z" transform="translate(-2.49 -0.59)"/></g><g id="Layer_13" data-name="Layer 13"><path class="cls-2" d="M43.71,83.63c.33,1.23,2.45,1.6,3.48,2.19a33.56,33.56,0,0,1,4.71,3.75c1.24,1,5.51,2,5.06-.57-.62-3.52-4.94-4.8-7.9-5.65C48.4,83.17,42.92,81.33,43.71,83.63Z" transform="translate(-2.49 -0.59)"/></g><g id="Layer_14" data-name="Layer 14"><path class="cls-2" d="M59.16,66.14c.84-1.49-.87-1.82-1.44-.39-.88,2.19,1.8,1.74,2.89.88.45-.37,2.6-3.92,3.08-1.71.17.76-.95,1.68-1.48,2.13-1.63,1.39-5.59,2.29-5.39-1,.06-1.07,1.41-2.75,2.68-2.35S60.28,65.89,59.16,66.14Z" transform="translate(-2.49 -0.59)"/></g><g id="Layer_15" data-name="Layer 15"><path class="cls-2" d="M47.6,70.25c-.68-1.55-1.11-3.48.32-4.73,1.7-1.48,4.8-2.43,4-5.23a5.94,5.94,0,0,0-2.72-3.53c-1.91-.87-3.66,1.08-5.39,1.67-2.1.73-3.64-.18-4.14,2.48a30.41,30.41,0,0,1-1,4.6c-.9,2.7,2.28,1.62,3.86,2.44C43,68.19,48.39,72.41,47.6,70.25Z" transform="translate(-2.49 -0.59)"/></g></g><g id="left_2"><path id="Path-9" class="cls-1" d="M60.91,193c0-20.47,2.15-56.45-14.61-73.59C40.06,113,33,109.22,24.81,105.77" transform="translate(-2.49 -0.59)"/><g id="Layer_2-2" data-name="Layer 2"><path class="cls-2" d="M7.77,90.5c-.54-1-.45-2-1.71-1.5a5.24,5.24,0,0,0-2.49,3c-.7,1.93-.77,8.24,2.64,8.08,1.21-.06,1.23-2,1.89-2.86a5.86,5.86,0,0,1,3.18-1.87C13,94.88,8,91,7.77,90.5Z" transform="translate(-2.49 -0.59)"/></g><g id="Layer_3-2" data-name="Layer 3"><path class="cls-2" d="M5.52,101.38a3.18,3.18,0,0,0-1,1.41c-.47,1.1-.79,2.28-1.15,3.42a14.48,14.48,0,0,0-.91,2.87c-.09,1.19.62,1.12,1.54,1.44,2.35.8,4,2.28,6.59,1.48.6-.18,5.66-2.94,5.12-3.92a25.63,25.63,0,0,0-3.18-.37,6.51,6.51,0,0,1-2.55-1A6.89,6.89,0,0,1,7,101C7,100.51,5.69,101.25,5.52,101.38Z" transform="translate(-2.49 -0.59)"/></g><g id="Layer_4-2" data-name="Layer 4"><path class="cls-2" d="M9.33,105.2c-1.56-4.67,2-7.43,5.34-9.81C9.66,96,5.83,100.61,9.33,105.2Z" transform="translate(-2.49 -0.59)"/></g><g id="Layer_5-2" data-name="Layer 5"><path class="cls-2" d="M14,92.72A15.32,15.32,0,0,0,16.69,91c2-1.32,3.21.74,4.45,2.07a27.41,27.41,0,0,1,2.1,2.21c.93,1.24.75,2,.43,3.4s.25,4.66-1.64,5.39c.6-3.74.44-8.76-4-9.7a10.32,10.32,0,0,0-5.62.63C11.76,93.58,12.82,93.18,14,92.72Z" transform="translate(-2.49 -0.59)"/></g><g id="Layer_6-2" data-name="Layer 6"><path class="cls-2" d="M13.26,97.77c1.49,0,3.23.74,3.28,2.48.28-1.76,2.57-2.29,4-2.5C18.37,95.45,15.2,94.86,13.26,97.77Z" transform="translate(-2.49 -0.59)"/></g><g id="Layer_7-2" data-name="Layer 7"><path class="cls-2" d="M16.92,106.61a6.55,6.55,0,0,1-6.85-.9,6,6,0,0,0,6.63-3.82c.84-1.94,1.7-3.23,4.09-3.36A6.52,6.52,0,0,1,16.92,106.61Z" transform="translate(-2.49 -0.59)"/></g><g id="Layer_8-2" data-name="Layer 8"><path class="cls-2" d="M24.05,102.11a26.19,26.19,0,0,0-.85,2.69c-.34,1.76-.56,3.83-1.89,5.18-.58.59-1.19,1.09-1.74,1.71a4,4,0,0,1-1.37,1.15c-1.25.62-2.18.62-3.1,1.65A12,12,0,0,1,13.64,116c-.32.26-1.42.76-1.58,1.09-.41.8,1,.31,1.57.17a6.31,6.31,0,0,1,1.92-.1,2.56,2.56,0,0,0,1.1-.11,7.63,7.63,0,0,0,2.66-2.27,5.77,5.77,0,0,1,2.05-1.81,25.26,25.26,0,0,1,2.82-.5c2.53-.76.13-4.38,2.15-5.92.91-.7,2.07-.38,2.85-1.35,1-1.26.18-2.14-.38-3.26-1.14-2.3.7-4.89-.54-7.09a6.2,6.2,0,0,0-6.05-2.71C26,94.65,25.19,98.29,24.05,102.11Z" transform="translate(-2.49 -0.59)"/></g><g id="Layer_9-2" data-name="Layer 9"><path class="cls-2" d="M31,96.57c.14.31,1,3.72,1.71,3.37.49-.24,0-2.53,0-2.94a12.92,12.92,0,0,1,.75-5.18c.42-1.41.82-2.69-.14-3.92-.78-1-1.29-.82-1.32-2.12,0-1.53-.16-1.4-1.41-2.37a3.4,3.4,0,0,1-1.06-1.51c-1.32-2.51-3.67-2.62-5.74-.85A6.8,6.8,0,0,0,22,87.77c.39,1.59,1.38,3.69,3.33,3.45C27.49,91,30.21,94.75,31,96.57Z" transform="translate(-2.49 -0.59)"/></g><g id="Layer_10-2" data-name="Layer 10"><path class="cls-2" d="M30,100.73c.44,1.19,1.14,2.32.93,3.64-.34,2.13-2.69,2.53-3.26,4.49-.81,2.79-1.24,5-4.53,5.61A7,7,0,0,0,18.45,117c5.66,4.19,12.71,1.29,17-3.59l-3.83,1.23c-1.34.43-3.95,1.82-5.35,1.48-1-.24-.2-.47.4-.8a18.16,18.16,0,0,1,2.66-1.1c1.36-.48,2.81-.44,4.16-.88,4.85-1.59,1.3-6.41-.15-8.91s-3.44-5.48-3.88-8.6A13.13,13.13,0,0,0,30,100.73Z" transform="translate(-2.49 -0.59)"/></g><g id="Layer_11-2" data-name="Layer 11"><path class="cls-2" d="M13.58,118.13c-1.23.18-2.52-.19-3.69.19-.78.26-2.59,1.14-2.88,2.06s.09.71.65.58c.37-.09.62-.51,1.1-.6a2.74,2.74,0,0,1,1.27.17c1,.32,1.72,1.29,2.77,1.54a5.62,5.62,0,0,0,2.9-.22c1-.39,1.28-1.31,2.37-1.31,2.38,0,5.23,1.63,7.44-.24-2.66.87-5.61-1.24-7.73-2.56C16.15,118.29,15.12,117.91,13.58,118.13Z" transform="translate(-2.49 -0.59)"/></g><g id="Layer_12-2" data-name="Layer 12"><path class="cls-2" d="M20.67,108.65c-.54,1-.8,2-1.72,2.69s-2.07.53-3.17.81c-1.35.35-2.19,1.75-3,2.8-1.24,1.66-3.64,4.36-5.33,1.7-1-1.51-1.47-3.28-2.49-4.8a25.08,25.08,0,0,0,3.69,1.6c2.06.49,3.19-1.51,4.88-2.22A4.38,4.38,0,0,0,16,109.57c.45-.6.71-1.39,1.17-2,.88-1.11,2.61-1.46,3.92-1.79C22.59,106.49,21.15,107.81,20.67,108.65Z" transform="translate(-2.49 -0.59)"/></g><g id="Layer_13-2" data-name="Layer 13"><path class="cls-2" d="M33.22,97c-.2,3.07-.45,7.58,2.66,9.34,2.25,1.29,2.79-3,2.24-4.57a34.1,34.1,0,0,1-1.95-5.69c-.2-1.17.16-3.3-.89-4C33.38,90.53,33.27,96.31,33.22,97Z" transform="translate(-2.49 -0.59)"/></g><g id="Layer_14-2" data-name="Layer 14"><path class="cls-2" d="M11.23,100.21c0-1.33,2.09-2,3.12-1.73,3.13.91,1,4.34-.9,5.4-.61.35-1.86,1.09-2.51.68-1.92-1.2,2.15-2,2.64-2.33,1.18-.73,2.51-3.1.15-3-1.54.06-1.8,1.79-.11,1.5C13,101.68,11.19,101.49,11.23,100.21Z" transform="translate(-2.49 -0.59)"/></g><g id="Layer_15-2" data-name="Layer 15"><path class="cls-2" d="M20.91,85.68c-.24-1.76,1.85-4.39-1-4.45a30.76,30.76,0,0,1-4.66-.64c-2.67-.43-2.33,1.33-3.72,3.07-1.15,1.43-3.57,2.41-3.4,4.51a6,6,0,0,0,2.41,3.75c2.37,1.7,4.31-.91,6.28-2,1.65-.93,3.32.12,4.56,1.28C23.15,92.68,21,86.18,20.91,85.68Z" transform="translate(-2.49 -0.59)"/></g></g><g id="left_3"><path id="Path-10" class="cls-3" d="M69.32,198.66c-3.34-24.21-7.14-30.53,2.31-58.58" transform="translate(-2.49 -0.59)"/><g id="Layer_2-3" data-name="Layer 2"><path class="cls-2" d="M93.22,115.88c1-.52,2-.41,1.52-1.69a5.27,5.27,0,0,0-3-2.53c-1.93-.74-8.24-.91-8.13,2.5,0,1.21,1.95,1.27,2.83,1.94a5.77,5.77,0,0,1,1.81,3.21C88.75,121,92.75,116.14,93.22,115.88Z" transform="translate(-2.49 -0.59)"/></g><g id="Layer_3-3" data-name="Layer 3"><path class="cls-2" d="M82.37,113.45a3.25,3.25,0,0,0-1.39-1c-1.09-.49-2.28-.83-3.41-1.21a14.24,14.24,0,0,0-2.85-1c-1.19-.12-1.13.6-1.46,1.52-.84,2.33-2.35,3.91-1.59,6.56.17.6,2.84,5.7,3.84,5.18a24.66,24.66,0,0,0,.41-3.17A6.72,6.72,0,0,1,77,117.86a6.88,6.88,0,0,1,5.68-2.94C83.21,114.92,82.5,113.62,82.37,113.45Z" transform="translate(-2.49 -0.59)"/></g><g id="Layer_4-3" data-name="Layer 4"><path class="cls-2" d="M78.49,117.2c4.7-1.49,7.39,2.11,9.72,5.5C87.66,117.68,83.13,113.78,78.49,117.2Z" transform="translate(-2.49 -0.59)"/></g><g id="Layer_5-3" data-name="Layer 5"><path class="cls-2" d="M90.89,122a16.16,16.16,0,0,0,1.66,2.76c1.28,2-.8,3.18-2.14,4.41a29.21,29.21,0,0,1-2.25,2.06c-1.25.91-2,.72-3.41.38s-4.66.17-5.36-1.73c3.73.65,8.75.58,9.77-3.82a10.39,10.39,0,0,0-.54-5.62C90.06,119.82,90.45,120.88,90.89,122Z" transform="translate(-2.49 -0.59)"/></g><g id="Layer_6-3" data-name="Layer 6"><path class="cls-2" d="M85.85,121.25c-.06,1.49-.79,3.22-2.53,3.24,1.76.31,2.25,2.61,2.44,4C88.09,126.4,88.73,123.24,85.85,121.25Z" transform="translate(-2.49 -0.59)"/></g><g id="Layer_7-3" data-name="Layer 7"><path class="cls-2" d="M77,124.77a6.54,6.54,0,0,1,1-6.84,6,6,0,0,0,3.7,6.7c1.93.86,3.2,1.74,3.3,4.14A6.53,6.53,0,0,1,77,124.77Z" transform="translate(-2.49 -0.59)"/></g><g id="Layer_8-3" data-name="Layer 8"><path class="cls-2" d="M81.33,132c-.91-.28-1.73-.69-2.67-.89-1.75-.36-3.82-.62-5.15-2-.58-.59-1.07-1.21-1.68-1.77a4.25,4.25,0,0,1-1.13-1.39c-.59-1.26-.58-2.19-1.6-3.13a12,12,0,0,1-1.46-1.48c-.24-.32-.73-1.43-1-1.6-.8-.42-.33,1-.21,1.57a5.77,5.77,0,0,1,.08,1.93,2.58,2.58,0,0,0,.09,1.1A7.57,7.57,0,0,0,68.77,127a5.69,5.69,0,0,1,1.78,2.08,25.85,25.85,0,0,1,.46,2.82c.72,2.55,4.37.21,5.88,2.25.68.93.34,2.08,1.31,2.87,1.24,1,2.13.23,3.26-.32,2.31-1.11,4.88.79,7.1-.42a6.21,6.21,0,0,0,2.8-6C88.76,134,85.13,133.17,81.33,132Z" transform="translate(-2.49 -0.59)"/></g><g id="Layer_9-3" data-name="Layer 9"><path class="cls-2" d="M86.76,139c-.31.13-3.73.93-3.4,1.65.24.5,2.54.05,2.94,0a12.89,12.89,0,0,1,5.17.84c1.41.44,2.67.86,3.92-.08,1-.76.85-1.28,2.14-1.28,1.53,0,1.41-.14,2.4-1.38a3.36,3.36,0,0,1,1.52-1c2.53-1.28,2.68-3.63,1-5.72a6.78,6.78,0,0,0-6.69-1.89c-1.6.37-3.71,1.32-3.51,3.28C92.43,135.59,88.6,138.25,86.76,139Z" transform="translate(-2.49 -0.59)"/></g><g id="Layer_10-3" data-name="Layer 10"><path class="cls-2" d="M82.62,137.91c-1.2.42-2.34,1.1-3.66.87-2.12-.37-2.48-2.73-4.43-3.33-2.78-.86-5-1.32-5.54-4.62a7,7,0,0,0-2.43-4.71c-4.28,5.6-1.5,12.7,3.31,17.1-.39-1.27-.77-2.57-1.16-3.85s-1.76-4-1.4-5.37c.26-1,.47-.2.79.41a18.21,18.21,0,0,1,1.06,2.68c.45,1.37.39,2.82.81,4.17,1.51,4.88,6.39,1.41,8.91,0,2.67-1.49,5.54-3.35,8.66-3.74A12.93,12.93,0,0,0,82.62,137.91Z" transform="translate(-2.49 -0.59)"/></g><g id="Layer_11-3" data-name="Layer 11"><path class="cls-2" d="M65.49,121.24c-.16-1.23.23-2.52-.13-3.7-.25-.78-1.1-2.6-2-2.91s-.71.08-.59.64c.08.37.5.63.58,1.11a2.89,2.89,0,0,1-.19,1.27c-.34,1-1.32,1.69-1.59,2.75a5.62,5.62,0,0,0,.18,2.9c.37,1,1.29,1.29,1.26,2.38,0,2.39-1.71,5.2.12,7.45-.82-2.67,1.34-5.59,2.69-7.69C65.29,123.81,65.69,122.78,65.49,121.24Z" transform="translate(-2.49 -0.59)"/></g><g id="Layer_12-3" data-name="Layer 12"><path class="cls-2" d="M74.85,128.48c-.95-.55-2-.83-2.66-1.77s-.5-2.07-.76-3.18c-.32-1.35-1.71-2.22-2.75-3-1.63-1.27-4.3-3.71-1.61-5.36,1.53-.93,3.3-1.42,4.84-2.41a25.17,25.17,0,0,0-1.66,3.67c-.52,2,1.46,3.21,2.14,4.91A4.4,4.4,0,0,0,74,123.77c.59.46,1.38.74,1.95,1.21,1.09.9,1.42,2.64,1.73,4C77,130.43,75.68,129,74.85,128.48Z" transform="translate(-2.49 -0.59)"/></g><g id="Layer_13-3" data-name="Layer 13"><path class="cls-2" d="M86.3,141.22c-3.06-.25-7.56-.57-9.38,2.51-1.32,2.23,3,2.83,4.53,2.31a34.54,34.54,0,0,1,5.73-1.86c1.17-.18,3.29.22,4-.81C92.76,141.49,87,141.28,86.3,141.22Z" transform="translate(-2.49 -0.59)"/></g><g id="Layer_14-3" data-name="Layer 14"><path class="cls-2" d="M83.44,119.18c1.33.07,2,2.12,1.68,3.14-1,3.13-4.35.89-5.38-1-.34-.61-1.06-1.87-.64-2.52,1.24-1.9,2,2.18,2.29,2.68.7,1.19,3.06,2.56,3,.2,0-1.54-1.75-1.83-1.49-.14C82,120.93,82.16,119.12,83.44,119.18Z" transform="translate(-2.49 -0.59)"/></g><g id="Layer_15-3" data-name="Layer 15"><path class="cls-2" d="M97.81,129.1c1.77-.21,4.36,1.92,4.47-.93a32,32,0,0,1,.71-4.65c.48-2.66-1.29-2.35-3-3.77-1.41-1.17-2.36-3.6-4.45-3.47a6,6,0,0,0-3.79,2.35c-1.74,2.34.83,4.33,1.9,6.3.9,1.67-.18,3.33-1.36,4.55C90.78,131.22,97.31,129.16,97.81,129.1Z" transform="translate(-2.49 -0.59)"/></g></g><g id="left_4"><path id="Path-7" class="cls-1" d="M116.16,194c0-15.6,1.89-31.33,0-46.81C110,96.43,102,74.88,74.39,35.42" transform="translate(-2.49 -0.59)"/><g id="Layer_2-4" data-name="Layer 2"><path class="cls-2" d="M58,6.73c0-1.1.49-1.95-.86-2.11a5.27,5.27,0,0,0-3.58,1.6c-1.5,1.42-4.39,7-1.27,8.41,1.11.49,2-1.21,3-1.71A5.81,5.81,0,0,1,59,12.68C60.71,13,58,7.26,58,6.73Z" transform="translate(-2.49 -0.59)"/></g><g id="Layer_3-4" data-name="Layer 3"><path class="cls-2" d="M51.12,15.45a3.15,3.15,0,0,0-1.49.83c-.91.76-1.73,1.68-2.57,2.53A15.29,15.29,0,0,0,45,21c-.61,1,0,1.27.74,2,1.73,1.77,2.5,3.81,5.21,4.28.62.11,6.38-.09,6.34-1.21a25,25,0,0,0-2.68-1.75,6.56,6.56,0,0,1-1.81-2.07,6.9,6.9,0,0,1-.19-6.4C52.81,15.33,51.33,15.41,51.12,15.45Z" transform="translate(-2.49 -0.59)"/></g><g id="Layer_4-4" data-name="Layer 4"><path class="cls-2" d="M52.81,20.57c.7-4.88,5.11-5.74,9.17-6.37C57.22,12.51,51.74,14.9,52.81,20.57Z" transform="translate(-2.49 -0.59)"/></g><g id="Layer_5-4" data-name="Layer 5"><path class="cls-2" d="M62.55,11.5a16.11,16.11,0,0,0,3.21-.3c2.39-.27,2.52,2.11,3,3.85A27.05,27.05,0,0,1,69.68,18c.28,1.53-.2,2.09-1.14,3.24s-1.87,4.27-3.88,4.08c2.2-3.08,4.32-7.63.8-10.46a10.37,10.37,0,0,0-5.3-2C60.19,11.28,61.32,11.39,62.55,11.5Z" transform="translate(-2.49 -0.59)"/></g><g id="Layer_6-4" data-name="Layer 6"><path class="cls-2" d="M59.65,15.69c1.32.71,2.56,2.12,1.82,3.69,1.05-1.45,3.33-.89,4.7-.44C65.26,15.92,62.69,14,59.65,15.69Z" transform="translate(-2.49 -0.59)"/></g><g id="Layer_7-4" data-name="Layer 7"><path class="cls-2" d="M59,25.23a6.54,6.54,0,0,1-5.72-3.88,6,6,0,0,0,7.64-.43c1.62-1.36,3-2.12,5.17-1.16A6.52,6.52,0,0,1,59,25.23Z" transform="translate(-2.49 -0.59)"/></g><g id="Layer_8-4" data-name="Layer 8"><path class="cls-2" d="M67.34,24.42a26.56,26.56,0,0,0-2,2c-1.09,1.43-2.22,3.18-4,3.79-.79.27-1.56.44-2.33.75a4.12,4.12,0,0,1-1.74.41c-1.39,0-2.23-.43-3.51.08a12,12,0,0,1-2,.67,8,8,0,0,0-1.89.26c-.74.53.72.71,1.32.86A5.87,5.87,0,0,1,53,34a2.58,2.58,0,0,0,1,.39,7.41,7.41,0,0,0,3.39-.83,5.73,5.73,0,0,1,2.64-.69,22.24,22.24,0,0,1,2.74.81c2.61.45,2.09-3.85,4.58-4.32,1.13-.22,2,.59,3.16.07,1.45-.68,1.12-1.83,1.12-3.08,0-2.57,2.83-4.06,2.7-6.58a6.2,6.2,0,0,0-4.19-5.14C72.4,18.61,70.08,21.52,67.34,24.42Z" transform="translate(-2.49 -0.59)"/></g><g id="Layer_9-4" data-name="Layer 9"><path class="cls-2" d="M76,22.58c0,.33-.78,3.76,0,3.77.55,0,1.14-2.26,1.3-2.64a12.9,12.9,0,0,1,3-4.3c1-1.07,1.93-2,1.62-3.56-.24-1.24-.78-1.31-.22-2.48.66-1.38.49-1.33-.2-2.76a3.42,3.42,0,0,1-.27-1.82c-.05-2.83-2.1-4-4.74-3.33a6.75,6.75,0,0,0-4.6,5.2c-.37,1.6-.43,3.92,1.42,4.58C75.43,16,76.16,20.6,76,22.58Z" transform="translate(-2.49 -0.59)"/></g><g id="Layer_10-4" data-name="Layer 10"><path class="cls-2" d="M73.25,25.84c-.14,1.26,0,2.58-.8,3.67-1.25,1.75-3.53,1-4.92,2.55-2,2.13-3.37,3.94-6.57,3a7,7,0,0,0-5.29.14c3.18,6.29,10.78,6.87,16.84,4.45l-4-.62c-1.4-.21-4.36-.15-5.45-1.08-.76-.65,0-.51.71-.54a18.31,18.31,0,0,1,2.87.22c1.43.18,2.72.86,4.11,1.08,5.06.75,4-5.15,3.88-8-.19-3.05-.62-6.45.39-9.42A13.11,13.11,0,0,0,73.25,25.84Z" transform="translate(-2.49 -0.59)"/></g><g id="Layer_11-4" data-name="Layer 11"><path class="cls-2" d="M50.8,34c-1.18-.39-2.17-1.31-3.38-1.49-.81-.11-2.83-.14-3.5.55s-.24.68.32.81c.37.09.78-.18,1.26,0a3.07,3.07,0,0,1,1.06.72c.78.76.95,1.92,1.78,2.63A5.67,5.67,0,0,0,51,38.31c1.06.09,1.72-.6,2.7-.11,2.12,1.08,3.94,3.8,6.76,3.13-2.77-.42-4.46-3.64-5.76-5.76C53,35.33,52.28,34.52,50.8,34Z" transform="translate(-2.49 -0.59)"/></g><g id="Layer_12-4" data-name="Layer 12"><path class="cls-2" d="M61.39,28.74c-.91.62-1.61,1.44-2.75,1.63s-2.08-.45-3.19-.7c-1.36-.29-2.74.58-3.92,1.16-1.86.93-5.22,2.27-5.53-.87-.18-1.78.15-3.59-.07-5.41a24,24,0,0,0,2.58,3.09c1.62,1.36,3.53.08,5.35.21a4.46,4.46,0,0,0,2.93-.39c.67-.34,1.26-.93,1.93-1.23,1.28-.6,3-.14,4.31.15C64.07,27.67,62.2,28.21,61.39,28.74Z" transform="translate(-2.49 -0.59)"/></g><g id="Layer_13-4" data-name="Layer 13"><path class="cls-2" d="M77.84,24C76.29,26.61,74,30.53,76,33.5c1.44,2.16,3.86-1.48,4.06-3.08a33.37,33.37,0,0,1,.81-6c.34-1.14,1.63-2.87,1-4C80.88,18.26,78.19,23.37,77.84,24Z" transform="translate(-2.49 -0.59)"/></g><g id="Layer_14-4" data-name="Layer 14"><path class="cls-2" d="M56.75,17c.64-1.16,2.77-.87,3.56-.14,2.39,2.22-1.1,4.3-3.23,4.42-.7,0-2.15.14-2.55-.52-1.17-1.94,2.83-.84,3.41-.9,1.38-.12,3.63-1.64,1.49-2.63-1.4-.64-2.41.79-.77,1.29C57.67,19.07,56.14,18.09,56.75,17Z" transform="translate(-2.49 -0.59)"/></g><g id="Layer_15-4" data-name="Layer 15"><path class="cls-2" d="M71.92,8.33c.57-1.69,3.62-3.1,1.1-4.43a31.6,31.6,0,0,1-3.88-2.66c-2.19-1.59-2.68.14-4.7,1.07-1.66.76-4.27.55-5,2.5a5.89,5.89,0,0,0,.47,4.43c1.35,2.58,4.25,1.13,6.5,1,1.89-.09,2.92,1.61,3.5,3.2C70.77,15.58,71.75,8.81,71.92,8.33Z" transform="translate(-2.49 -0.59)"/></g></g></g></svg>