<svg id="right_rose" data-name="Layer 1" xmlns="http://www.w3.org/2000/svg" viewBox="0 0 111.11 199.21"><defs><style>.cls-1{fill:none;stroke:#fff;stroke-width:3px;}.cls-2{fill:#fff;}</style></defs><title>right_roses</title><g id="Group-9"><g id="right_2"><path id="Path-2" class="cls-1" d="M55.68,37.7c1,15,2.27,30,3.13,45,.33,5.63-.11,11.29.43,16.9,2.68,27.59,12.34,57.06,7.17,84.75-1,5.6-3.32,10.9-5,16.35" transform="translate(-2.54 -1.94)"/><g id="Layer_2" data-name="Layer 2"><path class="cls-2" d="M54.06,11.19A6.4,6.4,0,0,1,57.42,9c1.2-.22,3.1.67,3.74-.49C63,5.18,56.69,2.21,54.44,2c-1.26-.13-3.21,0-4.19,1s0,1.43.66,2.41C51.24,5.87,52.73,12.63,54.06,11.19Z" transform="translate(-2.54 -1.94)"/></g><g id="Layer_3" data-name="Layer 3"><path class="cls-2" d="M61.7,9.66a7.58,7.58,0,0,1,4.1,5.7,7.31,7.31,0,0,1-.2,3,25.75,25.75,0,0,0-1.17,3.31c.71,1,5.87-2.67,6.33-3.17,2-2.22,1.36-4.51,1.69-7.21.13-1.07.54-1.74-.67-2.21a16.13,16.13,0,0,0-3.27-.48c-1.3-.19-2.62-.44-3.93-.5a3.39,3.39,0,0,0-1.85.27C62.52,8.49,61.18,9.41,61.7,9.66Z" transform="translate(-2.54 -1.94)"/></g><g id="Layer_4" data-name="Layer 4"><path class="cls-2" d="M52.43,14.54c4-2.16,8.38-4.35,12.24-.56C61.82,8.32,55.45,9.9,52.43,14.54Z" transform="translate(-2.54 -1.94)"/></g><g id="Layer_5" data-name="Layer 5"><path class="cls-2" d="M53.13,12.16a11.33,11.33,0,0,0-3.31,5.24c-1.19,4.81,3.69,7.37,7.66,8.58-1.62,1.51-4.43-.57-6.1-1S49,24.46,48.23,23a30.9,30.9,0,0,1-1.17-3.13c-.71-1.86-2.18-4,.08-5.38a17,17,0,0,0,3-1.88C51.14,11.65,52.05,10.8,53.13,12.16Z" transform="translate(-2.54 -1.94)"/></g><g id="Layer_6" data-name="Layer 6"><path class="cls-2" d="M51.94,21.46c.9-1.3,2.51-3.31,4.39-2.75-1.69-.87-1.55-2.93-.87-4.42C51.66,14.81,50.72,18.22,51.94,21.46Z" transform="translate(-2.54 -1.94)"/></g><g id="Layer_7" data-name="Layer 7"><path class="cls-2" d="M52.59,22.09c1.29-2.3,3-2.53,5.28-2.42A6.59,6.59,0,0,0,64.82,15a7.17,7.17,0,0,1-2.4,7.19A7.17,7.17,0,0,1,52.59,22.09Z" transform="translate(-2.54 -1.94)"/></g><g id="Layer_8" data-name="Layer 8"><path class="cls-2" d="M45.58,20.4a6.82,6.82,0,0,0-.23,7.27c1.57,2.29,5,1.71,6.74,3.94.83,1.09,1.32,2.31,3,1.93,1.33-.3,1.58-1.6,2.7-2.16,2.49-1.25,4.91,2.84,6.88.72.7-.76,1-1.84,1.84-2.54a6.34,6.34,0,0,1,2.77-1.16,8.34,8.34,0,0,0,3.51-1.53,2.92,2.92,0,0,0,.64-1,6.52,6.52,0,0,1,1-1.85c.43-.53,1.57-1.66.58-1.64-.4,0-1.42.85-1.83,1a12.93,12.93,0,0,1-2.15.72c-1.46.41-1.91,1.33-3.12,2.27a4.51,4.51,0,0,1-1.79.8c-.88.24-1.67.61-2.52.9-2,.66-4.13-.11-6-.63A28.9,28.9,0,0,0,54.57,27C50.25,26.31,46.29,25.33,45.58,20.4Z" transform="translate(-2.54 -1.94)"/></g><g id="Layer_9" data-name="Layer 9"><path class="cls-2" d="M43.23,23c1.17-1.81-.43-3.79-1.82-4.95a7.42,7.42,0,0,0-7.47-1.46C31.2,17.8,30.18,20.17,32,22.68a3.77,3.77,0,0,1,1,1.76c.35,1.7.16,1.78,1.66,2.53,1.27.65.85,1.08,1.46,2.32.75,1.54,2.2,1.76,3.79,2a14,14,0,0,1,5.48,1.75c.38.22,2.41,1.8,2.89,1.43.68-.54-2.27-3-2.51-3.29C44.35,29.57,41.91,25.07,43.23,23Z" transform="translate(-2.54 -1.94)"/></g><g id="Layer_10" data-name="Layer 10"><path class="cls-2" d="M45.74,29.38c2.86,1.92,4.75,5.17,6.62,8s4.82,8.44,8.72,4.41c1.08-1.11,1.74-2.56,2.86-3.68A21.55,21.55,0,0,1,66.31,36c.61-.43,1.2-1.07,1,0-.34,1.54-3,3.45-4,4.57s-2,2.13-3,3.19c6.89-1.93,13.13-7.5,11.71-15.1A7.69,7.69,0,0,0,67.21,32c-2.15,3-4.56,2.31-7.71,1.78-2.21-.38-3.72,1.75-6,1.06-1.41-.42-2.18-1.66-3.14-2.67A14.34,14.34,0,0,0,45.74,29.38Z" transform="translate(-2.54 -1.94)"/></g><g id="Layer_11" data-name="Layer 11"><path class="cls-2" d="M73,28.32c.28,2.72,1,6.65-1.19,8.86,2.91-1.29,2.68-4.87,3.81-7.23.52-1.08,1.56-.91,2.42-1.7a6.3,6.3,0,0,0,1.62-2.76c.25-1.16-.38-2.29-.2-3.47a3.17,3.17,0,0,1,.44-1.34c.32-.43.86-.48,1.12-.8.4-.48.72-.79-.26-.92S78,20.18,77.35,20.82c-.94,1-1.19,2.42-2,3.55C74.43,25.78,74.32,27,73,28.32Z" transform="translate(-2.54 -1.94)"/></g><g id="Layer_12" data-name="Layer 12"><path class="cls-2" d="M59.64,25.85c1-1.13,2.14-2.67,3.65-3,.79-.17,1.7-.06,2.5-.21A4.85,4.85,0,0,0,68.61,21c1.5-1.32,4-1.48,4.52-3.75a25.92,25.92,0,0,0,.19-4.41c1,1.73,2.51,3.09,3.55,4.76,1.81,2.94-2,4-4.24,4.45-1.42.28-3.2.44-4.19,1.6-.81.95-1.09,2.09-2.32,2.74s-2.27.34-3.48.4S59.59,27.68,59.64,25.85Z" transform="translate(-2.54 -1.94)"/></g><g id="Layer_13" data-name="Layer 13"><path class="cls-2" d="M39.25,33.28c.21,1.38,2.49,2,3.54,2.8a36.72,36.72,0,0,1,4.68,4.65c1.24,1.27,5.77,2.82,5.59,0-.25-3.91-4.82-5.82-7.94-7.09C44.43,33.34,38.67,30.67,39.25,33.28Z" transform="translate(-2.54 -1.94)"/></g><g id="Layer_14" data-name="Layer 14"><path class="cls-2" d="M58.18,16.05c1.1-1.53-.73-2.1-1.53-.6-1.21,2.28,1.77,2.11,3.05,1.3.54-.34,3.3-4,3.57-1.49C63.36,16.1,62,17,61.4,17.4c-1.94,1.32-6.37,1.83-5.76-1.7.2-1.15,1.86-2.83,3.2-2.24S59.44,15.91,58.18,16.05Z" transform="translate(-2.54 -1.94)"/></g><g id="Layer_15" data-name="Layer 15"><path class="cls-2" d="M45.08,19.16c-.55-1.78-.79-3.94.92-5.13,2-1.41,5.52-2.08,5-5.23a6.5,6.5,0,0,0-2.54-4.17c-2-1.18-4.12.74-6.08,1.18-2.38.54-4-.63-4.81,2.21a34.14,34.14,0,0,1-1.6,4.9c-1.31,2.84,2.29,2,3.91,3.13C40.32,16.35,45.69,21.6,45.08,19.16Z" transform="translate(-2.54 -1.94)"/></g></g><g id="right_1"><path id="Path-6" class="cls-1" d="M44.14,200.88c0-35.48,2.42-72.14-9.29-107.09" transform="translate(-2.54 -1.94)"/><g id="Layer_2-2" data-name="Layer 2"><path class="cls-2" d="M25.45,59.5c.27-1.15,1.08-1.88-.27-2.44s-3.09,0-4.2.61c-2,1-6.63,6-3.8,8.38,1,.83,2.42-.67,3.6-.91a6.33,6.33,0,0,1,3.9.83C26.42,66.81,25.33,60.07,25.45,59.5Z" transform="translate(-2.54 -1.94)"/></g><g id="Layer_3-2" data-name="Layer 3"><path class="cls-2" d="M15.71,66.56a3.38,3.38,0,0,0-1.79.42c-1.18.53-2.3,1.25-3.42,1.89A15.7,15.7,0,0,0,7.68,70.5c-.94.88-.32,1.34.19,2.27,1.28,2.35,1.48,4.7,4.17,6,.61.3,6.66,1.78,7,.61a26.77,26.77,0,0,0-2.27-2.62,6.93,6.93,0,0,1-1.28-2.68,7.44,7.44,0,0,1,1.69-6.72C17.51,66.92,15.94,66.57,15.71,66.56Z" transform="translate(-2.54 -1.94)"/></g><g id="Layer_4-2" data-name="Layer 4"><path class="cls-2" d="M16,72.38c2.16-4.87,7-4.47,11.42-3.93C22.93,65.3,16.52,66.17,16,72.38Z" transform="translate(-2.54 -1.94)"/></g><g id="Layer_5-2" data-name="Layer 5"><path class="cls-2" d="M28.77,65.8a16.78,16.78,0,0,0,3.43.63c2.57.42,2,2.94,2,4.9,0,1.08.16,2.23.06,3.3-.16,1.67-.83,2.11-2.14,3s-3.2,3.9-5.24,3.11c3.2-2.55,6.75-6.67,3.91-10.65a11.25,11.25,0,0,0-4.95-3.6C26.38,64.88,27.53,65.33,28.77,65.8Z" transform="translate(-2.54 -1.94)"/></g><g id="Layer_6-2" data-name="Layer 6"><path class="cls-2" d="M24.53,69.32c1.16,1.12,2,3,.81,4.37,1.51-1.2,3.72,0,5,.92C30.3,71.2,28.2,68.41,24.53,69.32Z" transform="translate(-2.54 -1.94)"/></g><g id="Layer_7-2" data-name="Layer 7"><path class="cls-2" d="M21,79.05a7.08,7.08,0,0,1-4.81-5.72,6.48,6.48,0,0,0,8.08,1.8c2.08-.95,3.71-1.35,5.72.3A7.06,7.06,0,0,1,21,79.05Z" transform="translate(-2.54 -1.94)"/></g><g id="Layer_8-2" data-name="Layer 8"><path class="cls-2" d="M30,80.66a28.68,28.68,0,0,0-2.64,1.52c-1.55,1.16-3.24,2.65-5.29,2.76-.89,0-1.75,0-2.64.1A4.5,4.5,0,0,1,17.47,85c-1.45-.43-2.19-1.1-3.68-.95a12.89,12.89,0,0,1-2.24.12,9.12,9.12,0,0,0-2.06-.29c-.91.34.55,1,1.13,1.29a6.43,6.43,0,0,1,1.61,1.32,2.7,2.7,0,0,0,1,.71,8.13,8.13,0,0,0,3.77.13,6.31,6.31,0,0,1,3,0c1,.35,1.7,1.22,2.62,1.66,2.57,1.24,3.3-3.4,6-3.16,1.23.11,1.93,1.21,3.26,1,1.7-.28,1.71-1.57,2.08-2.87.76-2.67,4.13-3.4,4.74-6.06a6.72,6.72,0,0,0-2.86-6.58C36.94,76.1,33.67,78.45,30,80.66Z" transform="translate(-2.54 -1.94)"/></g><g id="Layer_9-2" data-name="Layer 9"><path class="cls-2" d="M39.54,81.29c-.11.35-1.92,3.69-1.1,3.94.58.16,1.86-2,2.13-2.37A13.86,13.86,0,0,1,45,79.27c1.37-.82,2.62-1.55,2.75-3.23.1-1.36-.43-1.6.49-2.66,1.1-1.24.9-1.23.6-2.92a3.76,3.76,0,0,1,.26-2c.78-3-1-4.77-4-4.86a7.33,7.33,0,0,0-6.32,4.06c-.84,1.56-1.59,4,.14,5.19C40.86,74.27,40.27,79.28,39.54,81.29Z" transform="translate(-2.54 -1.94)"/></g><g id="Layer_10-2" data-name="Layer 10"><path class="cls-2" d="M35.7,83.88c-.51,1.27-.77,2.68-1.91,3.59-1.82,1.45-4,0-5.87,1.2-2.69,1.64-4.67,3.12-7.71,1.17a7.66,7.66,0,0,0-5.56-1.4c1.46,7.48,9.21,10.32,16.22,9.58L26.92,96.2c-1.39-.63-4.49-1.43-5.35-2.72-.6-.9.18-.52.9-.35A19.4,19.4,0,0,1,25.4,94.2c1.43.61,2.56,1.7,4,2.33,5,2.27,5.72-4.17,6.39-7.22.7-3.22,1.25-6.89,3.17-9.7A14.4,14.4,0,0,0,35.7,83.88Z" transform="translate(-2.54 -1.94)"/></g><g id="Layer_11-2" data-name="Layer 11"><path class="cls-2" d="M9.92,85.81c-1.11-.75-1.87-2-3.09-2.54-.8-.36-2.89-1-3.8-.47s-.44.64.1,1c.36.19.87,0,1.32.32a3.08,3.08,0,0,1,.89,1.07c.59,1,.43,2.28,1.08,3.25A6.22,6.22,0,0,0,8.9,90.33c1.08.41,2-.12,2.84.68,1.9,1.75,3,5.11,6.13,5.24-2.77-1.25-3.58-5.09-4.31-7.69C11.86,87.81,11.32,86.75,9.92,85.81Z" transform="translate(-2.54 -1.94)"/></g><g id="Layer_12-2" data-name="Layer 12"><path class="cls-2" d="M22.5,83.41c-1.13.38-2.1,1-3.34.89s-2-1.08-3.12-1.66c-1.33-.71-3-.21-4.42,0-2.21.42-6.1.83-5.5-2.53.34-1.9,1.21-3.69,1.51-5.66a26.41,26.41,0,0,0,1.79,4c1.28,1.89,3.65,1.12,5.51,1.79a4.71,4.71,0,0,0,3.16.45c.79-.15,1.58-.59,2.36-.71,1.52-.24,3.16.74,4.45,1.43C25.61,83.09,23.5,83.09,22.5,83.41Z" transform="translate(-2.54 -1.94)"/></g><g id="Layer_13-2" data-name="Layer 13"><path class="cls-2" d="M41,83.27c-2.4,2.31-5.88,5.72-4.69,9.39.86,2.67,4.45-.4,5.12-2a36.69,36.69,0,0,1,2.6-6c.69-1.08,2.54-2.51,2.23-3.86C45.87,78.23,41.56,82.76,41,83.27Z" transform="translate(-2.54 -1.94)"/></g><g id="Layer_14-2" data-name="Layer 14"><path class="cls-2" d="M21.13,69.79c1-1,3.14-.1,3.75.89,1.83,3-2.41,4.16-4.66,3.66-.74-.17-2.28-.49-2.5-1.29-.66-2.37,3.19,0,3.81.07,1.47.28,4.27-.65,2.32-2.3-1.27-1.09-2.74.1-1.18,1.1C21.47,72.25,20.16,70.78,21.13,69.79Z" transform="translate(-2.54 -1.94)"/></g><g id="Layer_15-2" data-name="Layer 15"><path class="cls-2" d="M39.46,65.26c1.09-1.59,4.68-2.16,2.45-4.29a34,34,0,0,1-3.26-3.91c-1.81-2.29-2.83-.64-5.21-.27-1.95.31-4.6-.67-6,1.12a6.46,6.46,0,0,0-.82,4.75c.65,3.09,4.1,2.43,6.47,3,2,.47,2.57,2.53,2.71,4.37C36.14,72.47,39.15,65.7,39.46,65.26Z" transform="translate(-2.54 -1.94)"/></g></g><g id="right_3"><path id="Path-4" class="cls-1" d="M50.66,197.54c1.84-8,2.6-18.64,8.6-25.83,10.33-12.36,20.35-24.26,25.42-38.57,3.45-9.73.34-11-2-22.8-1.26-6.24-.62-9-.08-14.72" transform="translate(-2.54 -1.94)"/><g id="Layer_2-3" data-name="Layer 2"><path class="cls-2" d="M92.44,70.79a6.24,6.24,0,0,1,3.91-.65c1.16.28,2.49,1.84,3.53,1,2.92-2.21-1.48-7.37-3.4-8.48-1.07-.62-2.89-1.24-4.14-.79s-.59,1.26-.38,2.41C92.06,64.9,90.68,71.54,92.44,70.79Z" transform="translate(-2.54 -1.94)"/></g><g id="Layer_3-3" data-name="Layer 3"><path class="cls-2" d="M99.88,72.49a7.37,7.37,0,0,1,1.38,6.74,7.08,7.08,0,0,1-1.39,2.61,25.25,25.25,0,0,0-2.37,2.49c.24,1.18,6.31,0,6.93-.3,2.72-1.16,3-3.48,4.4-5.76.54-.9,1.18-1.33.29-2.24a16.07,16.07,0,0,0-2.73-1.75c-1.08-.68-2.17-1.44-3.31-2a3.52,3.52,0,0,0-1.76-.5C101.09,71.77,99.52,72.05,99.88,72.49Z" transform="translate(-2.54 -1.94)"/></g><g id="Layer_4-3" data-name="Layer 4"><path class="cls-2" d="M89.64,73.12c4.41-.34,9.24-.52,11.17,4.41C100.53,71.34,94.21,70.19,89.64,73.12Z" transform="translate(-2.54 -1.94)"/></g><g id="Layer_5-3" data-name="Layer 5"><path class="cls-2" d="M91.23,71.28a11.22,11.22,0,0,0-5.07,3.35c-3,3.83.35,8.07,3.41,10.74-2,.7-3.73-2.28-5.06-3.31s-1.9-1.44-2-3.1a29.89,29.89,0,0,1,.2-3.27c.12-2-.33-4.47,2.24-4.77a17.06,17.06,0,0,0,3.43-.48C89.65,70,90.8,69.63,91.23,71.28Z" transform="translate(-2.54 -1.94)"/></g><g id="Layer_6-3" data-name="Layer 6"><path class="cls-2" d="M86.43,79.12c1.33-.81,3.57-2,5-.7-1.16-1.46-.2-3.24,1-4.31C88.84,73.06,86.64,75.73,86.43,79.12Z" transform="translate(-2.54 -1.94)"/></g><g id="Layer_7-3" data-name="Layer 7"><path class="cls-2" d="M86.76,79.94c2.07-1.55,3.67-1.08,5.69,0a6.44,6.44,0,0,0,8.1-1.43,7.3,7.3,0,0,1-13.79,1.48Z" transform="translate(-2.54 -1.94)"/></g><g id="Layer_8-3" data-name="Layer 8"><path class="cls-2" d="M81.18,75.62A6.65,6.65,0,0,0,78.05,82c.49,2.67,3.8,3.54,4.44,6.22.31,1.31.25,2.59,1.94,2.94,1.31.27,2-.79,3.28-.84,2.72-.12,3.24,4.51,5.85,3.39.93-.39,1.66-1.22,2.67-1.52a6.09,6.09,0,0,1,2.94.08,8.06,8.06,0,0,0,3.75,0,2.78,2.78,0,0,0,1-.66,6.21,6.21,0,0,1,1.66-1.24c.59-.31,2.07-.86,1.17-1.23a8.27,8.27,0,0,0-2,.2,13.69,13.69,0,0,1-2.22-.22c-1.47-.22-2.24.42-3.69.77a4.44,4.44,0,0,1-1.92,0c-.88-.13-1.74-.12-2.62-.21-2-.2-3.64-1.75-5.13-3a29.07,29.07,0,0,0-2.55-1.63C83,82.77,79.83,80.3,81.18,75.62Z" transform="translate(-2.54 -1.94)"/></g><g id="Layer_9-3" data-name="Layer 9"><path class="cls-2" d="M78,77c1.77-1.15,1.14-3.56.36-5.14a7.26,7.26,0,0,0-6.09-4.31c-2.92,0-4.79,1.67-4.14,4.65a3.63,3.63,0,0,1,.17,2c-.37,1.67-.56,1.65.47,2.93.87,1.09.33,1.3.37,2.66.06,1.68,1.26,2.45,2.58,3.32a14.14,14.14,0,0,1,4.2,3.76c.25.36,1.43,2.58,2,2.45.83-.22-.82-3.61-.92-4C76.4,83.31,76,78.32,78,77Z" transform="translate(-2.54 -1.94)"/></g><g id="Layer_10-3" data-name="Layer 10"><path class="cls-2" d="M77.71,83.7c1.79,2.87,2.17,6.53,2.73,9.76.53,3.06.92,9.48,6,7.44,1.41-.56,2.59-1.59,4-2.14a18.69,18.69,0,0,1,3-.92c.72-.14,1.51-.48.88.38-.92,1.24-4,1.9-5.44,2.47s-2.67,1.09-4,1.63c6.93,1,14.75-1.44,16.52-8.8a7.62,7.62,0,0,0-5.57,1.15c-3.11,1.8-5,.24-7.6-1.5-1.82-1.22-4,.07-5.78-1.45-1.09-1-1.29-2.36-1.74-3.65A14.18,14.18,0,0,0,77.71,83.7Z" transform="translate(-2.54 -1.94)"/></g><g id="Layer_11-3" data-name="Layer 11"><path class="cls-2" d="M102.49,93.69c-.84,2.55-1.82,6.32-4.61,7.45,3.12,0,4.35-3.29,6.3-4.94.9-.75,1.76-.19,2.85-.55a6.12,6.12,0,0,0,2.55-1.81c.69-.94.58-2.2,1.22-3.19a3.12,3.12,0,0,1,.93-1c.46-.25,1-.08,1.32-.26.55-.28,1-.42.14-.93s-3,0-3.79.29c-1.23.49-2,1.69-3.18,2.39C104.8,92,104.21,93,102.49,93.69Z" transform="translate(-2.54 -1.94)"/></g><g id="Layer_12-3" data-name="Layer 12"><path class="cls-2" d="M91.55,86.13c1.3-.63,3-1.53,4.47-1.23.78.16,1.54.63,2.32.82a4.76,4.76,0,0,0,3.16-.31c1.87-.59,4.19.28,5.54-1.54A25.49,25.49,0,0,0,109,80c.21,2,1,3.78,1.26,5.68.44,3.36-3.4,2.78-5.58,2.27-1.37-.31-3-.89-4.38-.24-1.11.53-1.82,1.43-3.17,1.51s-2.17-.6-3.28-1S90.77,87.74,91.55,86.13Z" transform="translate(-2.54 -1.94)"/></g><g id="Layer_13-3" data-name="Layer 13"><path class="cls-2" d="M70.35,84.58c-.37,1.32,1.41,2.82,2,3.93a36.43,36.43,0,0,1,2.32,6c.59,1.63,4,4.84,5,2.23,1.34-3.6-2-7.14-4.25-9.53C75,86.71,70.87,82,70.35,84.58Z" transform="translate(-2.54 -1.94)"/></g><g id="Layer_14-3" data-name="Layer 14"><path class="cls-2" d="M94.18,76.78c1.59-.92.18-2.17-1.12-1.15-2,1.56.72,2.6,2.2,2.39.62-.09,4.54-2.22,3.78.1-.25.78-1.79,1-2.53,1.16-2.27.4-6.42-.91-4.47-3.83.65-1,2.81-1.78,3.76-.72S95.36,77.16,94.18,76.78Z" transform="translate(-2.54 -1.94)"/></g><g id="Layer_15-3" data-name="Layer 15"><path class="cls-2" d="M81.23,74.3c.22-1.81.87-3.83,2.87-4.21,2.38-.44,5.77.36,6.55-2.67a6.35,6.35,0,0,0-.6-4.75c-1.3-1.85-4-1-5.9-1.38-2.34-.47-3.28-2.15-5.18,0a33.1,33.1,0,0,1-3.4,3.74c-2.31,2,1.22,2.74,2.24,4.36C78.1,69.89,80.79,76.73,81.23,74.3Z" transform="translate(-2.54 -1.94)"/></g></g></g></svg>